<svg width="2648" height="1338" xmlns="http://www.w3.org/2000/svg" xmlns:xlink="http://www.w3.org/1999/xlink" overflow="hidden"><defs><clipPath id="clip0"><rect x="2684" y="1462" width="2648" height="1338"/></clipPath><clipPath id="clip1"><rect x="2684" y="1463" width="2646" height="1335"/></clipPath><clipPath id="clip2"><rect x="2684" y="1463" width="2646" height="1335"/></clipPath><clipPath id="clip3"><rect x="2684" y="1463" width="2646" height="1335"/></clipPath><clipPath id="clip4"><rect x="2684" y="1463" width="2646" height="1335"/></clipPath><clipPath id="clip5"><rect x="2684" y="1463" width="2646" height="1335"/></clipPath><clipPath id="clip6"><rect x="2684" y="1463" width="2646" height="1335"/></clipPath><clipPath id="clip7"><rect x="2684" y="1463" width="2646" height="1335"/></clipPath><clipPath id="clip8"><rect x="2891" y="1666" width="2345" height="932"/></clipPath><clipPath id="clip9"><rect x="2684" y="1463" width="2646" height="1335"/></clipPath><clipPath id="clip10"><rect x="2891" y="1666" width="2345" height="932"/></clipPath><clipPath id="clip11"><rect x="2684" y="1463" width="2646" height="1335"/></clipPath><clipPath id="clip12"><rect x="2891" y="1666" width="2341" height="928"/></clipPath><clipPath id="clip13"><rect x="2684" y="1463" width="2646" height="1335"/></clipPath><clipPath id="clip14"><rect x="2684" y="1463" width="2646" height="1335"/></clipPath><clipPath id="clip15"><rect x="2684" y="1463" width="2646" height="1335"/></clipPath><clipPath id="clip16"><rect x="2684" y="1463" width="2646" height="1335"/></clipPath><clipPath id="clip17"><rect x="2684" y="1463" width="2646" height="1335"/></clipPath><clipPath id="clip18"><rect x="2684" y="1463" width="2646" height="1335"/></clipPath><clipPath id="clip19"><rect x="2684" y="1463" width="2646" height="1335"/></clipPath><clipPath id="clip20"><rect x="2684" y="1463" width="2646" height="1335"/></clipPath><clipPath id="clip21"><rect x="2684" y="1463" width="2646" height="1335"/></clipPath><clipPath id="clip22"><rect x="2684" y="1463" width="2646" height="1335"/></clipPath><clipPath id="clip23"><rect x="2684" y="1463" width="2646" height="1335"/></clipPath><clipPath id="clip24"><rect x="2684" y="1463" width="2646" height="1335"/></clipPath><clipPath id="clip25"><rect x="2684" y="1463" width="2646" height="1335"/></clipPath><clipPath id="clip26"><rect x="2684" y="1463" width="2646" height="1335"/></clipPath><clipPath id="clip27"><rect x="2684" y="1463" width="2646" height="1335"/></clipPath><clipPath id="clip28"><rect x="2684" y="1463" width="2646" height="1335"/></clipPath><clipPath id="clip29"><rect x="2684" y="1463" width="2646" height="1335"/></clipPath><clipPath id="clip30"><rect x="2684" y="1463" width="2646" height="1335"/></clipPath><clipPath id="clip31"><rect x="2684" y="1463" width="2646" height="1335"/></clipPath><clipPath id="clip32"><rect x="2684" y="1463" width="2646" height="1335"/></clipPath><clipPath id="clip33"><rect x="2684" y="1463" width="2646" height="1335"/></clipPath><clipPath id="clip34"><rect x="2684" y="1463" width="2646" height="1335"/></clipPath><clipPath id="clip35"><rect x="2684" y="1463" width="2646" height="1335"/></clipPath><clipPath id="clip36"><rect x="2684" y="1463" width="2646" height="1335"/></clipPath><clipPath id="clip37"><rect x="2684" y="1463" width="2646" height="1335"/></clipPath><clipPath id="clip38"><rect x="2684" y="1463" width="2646" height="1335"/></clipPath><clipPath id="clip39"><rect x="2684" y="1463" width="2646" height="1335"/></clipPath><clipPath id="clip40"><rect x="2684" y="1463" width="2646" height="1335"/></clipPath><clipPath id="clip41"><rect x="2684" y="1463" width="2646" height="1335"/></clipPath></defs><g clip-path="url(#clip0)" transform="translate(-2684 -1462)"><rect x="2685" y="1463" width="2645" height="1335" fill="#FFFFFF"/><g clip-path="url(#clip1)"><path d="M2891.5 2439.58 5232.5 2439.58M2891.5 2285.58 5232.5 2285.58M2891.5 2130.57 5232.5 2130.57M2891.5 1975.56 5232.5 1975.56M2891.5 1821.56 5232.5 1821.56M2891.5 1666.5 5232.5 1666.5" stroke="#D9D9D9" stroke-width="3.4375" stroke-linejoin="round" stroke-miterlimit="10" fill="none"/></g><g clip-path="url(#clip2)"><path d="M3281.61 1666.5 3281.61 2594.5M3672.62 1666.5 3672.62 2594.5M4062.63 1666.5 4062.63 2594.5M4452.65 1666.5 4452.65 2594.5M4842.66 1666.5 4842.66 2594.5M5232.5 1666.5 5232.5 2594.5" stroke="#D9D9D9" stroke-width="3.4375" stroke-linejoin="round" stroke-miterlimit="10" fill="none"/></g><g clip-path="url(#clip3)"><path d="M2891.5 1666.5 5232.5 1666.5" stroke="#ED7D31" stroke-width="3.4375" stroke-linejoin="round" stroke-miterlimit="10" fill="none" fill-rule="evenodd"/></g><g clip-path="url(#clip4)"><path d="M2891.5 1666.5 2891.5 1679.5M3151.6 1666.5 3151.6 1679.5M3411.61 1666.5 3411.61 1679.5M3672.62 1666.5 3672.62 1679.5M3932.63 1666.5 3932.63 1679.5M4192.64 1666.5 4192.64 1679.5M4452.65 1666.5 4452.65 1679.5M4712.65 1666.5 4712.65 1679.5M4972.66 1666.5 4972.66 1679.5M5232.5 1666.5 5232.5 1679.5" stroke="#ED7D31" stroke-width="3.4375" stroke-linejoin="round" stroke-miterlimit="10" fill="none"/></g><g clip-path="url(#clip5)"><path d="M0 0 0.000360892 928" stroke="#BFBFBF" stroke-width="3.4375" stroke-linejoin="round" stroke-miterlimit="10" fill="none" fill-rule="evenodd" transform="matrix(1 0 0 -1 2891.5 2594.5)"/></g><g clip-path="url(#clip6)"><path d="M2891.5 2594.5 5232.5 2594.5" stroke="#4472C4" stroke-width="3.4375" stroke-linejoin="round" stroke-miterlimit="10" fill="none" fill-rule="evenodd"/></g><g clip-path="url(#clip7)"><path d="M2891.5 2581.5 2891.5 2594.5M3281.61 2581.5 3281.61 2594.5M3672.62 2581.5 3672.62 2594.5M4062.63 2581.5 4062.63 2594.5M4452.65 2581.5 4452.65 2594.5M4842.66 2581.5 4842.66 2594.5M5232.5 2581.5 5232.5 2594.5" stroke="#4472C4" stroke-width="3.4375" stroke-linejoin="round" stroke-miterlimit="10" fill="none"/></g><g clip-path="url(#clip8)"><path d="M3399.5 2362.5 3611.62 2285.58 3822.63 2207.57 4034.63 2130.57 4227.64 2053.57 4419.65 1975.56 4622.65 1898.56 4826.5 1821.5" stroke="#4472C4" stroke-width="6.875" stroke-linecap="round" stroke-linejoin="round" stroke-miterlimit="10" fill="none"/></g><g clip-path="url(#clip9)"><path d="M3410.19 2362.73C3410.19 2368.8 3405.26 2373.73 3399.19 2373.73 3393.11 2373.73 3388.19 2368.8 3388.19 2362.73 3388.19 2356.65 3393.11 2351.73 3399.19 2351.73 3405.26 2351.73 3410.19 2356.65 3410.19 2362.73Z" stroke="#4472C4" stroke-width="3.4375" stroke-linejoin="round" stroke-miterlimit="10" fill="#4472C4"/><path d="M3622.19 2285.73C3622.19 2291.8 3617.26 2296.73 3611.19 2296.73 3605.11 2296.73 3600.19 2291.8 3600.19 2285.73 3600.19 2279.65 3605.11 2274.73 3611.19 2274.73 3617.26 2274.73 3622.19 2279.65 3622.19 2285.73Z" stroke="#4472C4" stroke-width="3.4375" stroke-linejoin="round" stroke-miterlimit="10" fill="#4472C4"/><path d="M3834.19 2207.73C3834.19 2213.8 3829.26 2218.73 3823.19 2218.73 3817.11 2218.73 3812.19 2213.8 3812.19 2207.73 3812.19 2201.65 3817.11 2196.73 3823.19 2196.73 3829.26 2196.73 3834.19 2201.65 3834.19 2207.73Z" stroke="#4472C4" stroke-width="3.4375" stroke-linejoin="round" stroke-miterlimit="10" fill="#4472C4"/><path d="M4046.19 2130.73C4046.19 2136.8 4041.26 2141.73 4035.19 2141.73 4029.11 2141.73 4024.19 2136.8 4024.19 2130.73 4024.19 2124.65 4029.11 2119.73 4035.19 2119.73 4041.26 2119.73 4046.19 2124.65 4046.19 2130.73Z" stroke="#4472C4" stroke-width="3.4375" stroke-linejoin="round" stroke-miterlimit="10" fill="#4472C4"/><path d="M4238.19 2053.73C4238.19 2059.8 4233.26 2064.73 4227.19 2064.73 4221.11 2064.73 4216.19 2059.8 4216.19 2053.73 4216.19 2047.65 4221.11 2042.73 4227.19 2042.73 4233.26 2042.73 4238.19 2047.65 4238.19 2053.73Z" stroke="#4472C4" stroke-width="3.4375" stroke-linejoin="round" stroke-miterlimit="10" fill="#4472C4"/><path d="M4431.19 1976.73C4431.19 1982.8 4426.26 1987.73 4420.19 1987.73 4414.11 1987.73 4409.19 1982.8 4409.19 1976.73 4409.19 1970.65 4414.11 1965.73 4420.19 1965.73 4426.26 1965.73 4431.19 1970.65 4431.19 1976.73Z" stroke="#4472C4" stroke-width="3.4375" stroke-linejoin="round" stroke-miterlimit="10" fill="#4472C4"/><path d="M4633.19 1898.73C4633.19 1904.8 4628.26 1909.73 4622.19 1909.73 4616.11 1909.73 4611.19 1904.8 4611.19 1898.73 4611.19 1892.65 4616.11 1887.73 4622.19 1887.73 4628.26 1887.73 4633.19 1892.65 4633.19 1898.73Z" stroke="#4472C4" stroke-width="3.4375" stroke-linejoin="round" stroke-miterlimit="10" fill="#4472C4"/><path d="M4837.19 1821.73C4837.19 1827.8 4832.26 1832.73 4826.19 1832.73 4820.11 1832.73 4815.19 1827.8 4815.19 1821.73 4815.19 1815.65 4820.11 1810.73 4826.19 1810.73 4832.26 1810.73 4837.19 1815.65 4837.19 1821.73Z" stroke="#4472C4" stroke-width="3.4375" stroke-linejoin="round" stroke-miterlimit="10" fill="#4472C4"/></g><g clip-path="url(#clip10)"><path d="M3169.5 2362.5 3620.62 2285.58 4053.63 2207.57 4348.64 2130.57 4400.64 2053.57 4504.65 1975.56 4556.65 1898.56 4608.5 1821.5" stroke="#ED7D31" stroke-width="6.875" stroke-linecap="round" stroke-linejoin="round" stroke-miterlimit="10" fill="none"/></g><g clip-path="url(#clip11)"><path d="M3180.19 2362.73C3180.19 2368.8 3175.26 2373.73 3169.19 2373.73 3163.11 2373.73 3158.19 2368.8 3158.19 2362.73 3158.19 2356.65 3163.11 2351.73 3169.19 2351.73 3175.26 2351.73 3180.19 2356.65 3180.19 2362.73Z" stroke="#ED7D31" stroke-width="3.4375" stroke-linejoin="round" stroke-miterlimit="10" fill="#ED7D31"/><path d="M3631.19 2285.73C3631.19 2291.8 3626.26 2296.73 3620.19 2296.73 3614.11 2296.73 3609.19 2291.8 3609.19 2285.73 3609.19 2279.65 3614.11 2274.73 3620.19 2274.73 3626.26 2274.73 3631.19 2279.65 3631.19 2285.73Z" stroke="#ED7D31" stroke-width="3.4375" stroke-linejoin="round" stroke-miterlimit="10" fill="#ED7D31"/><path d="M4064.19 2207.73C4064.19 2213.8 4059.26 2218.73 4053.19 2218.73 4047.11 2218.73 4042.19 2213.8 4042.19 2207.73 4042.19 2201.65 4047.11 2196.73 4053.19 2196.73 4059.26 2196.73 4064.19 2201.65 4064.19 2207.73Z" stroke="#ED7D31" stroke-width="3.4375" stroke-linejoin="round" stroke-miterlimit="10" fill="#ED7D31"/><path d="M4359.19 2130.73C4359.19 2136.8 4354.26 2141.73 4348.19 2141.73 4342.11 2141.73 4337.19 2136.8 4337.19 2130.73 4337.19 2124.65 4342.11 2119.73 4348.19 2119.73 4354.26 2119.73 4359.19 2124.65 4359.19 2130.73Z" stroke="#ED7D31" stroke-width="3.4375" stroke-linejoin="round" stroke-miterlimit="10" fill="#ED7D31"/><path d="M4411.19 2053.73C4411.19 2059.8 4406.26 2064.73 4400.19 2064.73 4394.11 2064.73 4389.19 2059.8 4389.19 2053.73 4389.19 2047.65 4394.11 2042.73 4400.19 2042.73 4406.26 2042.73 4411.19 2047.65 4411.19 2053.73Z" stroke="#ED7D31" stroke-width="3.4375" stroke-linejoin="round" stroke-miterlimit="10" fill="#ED7D31"/><path d="M4515.19 1976.73C4515.19 1982.8 4510.26 1987.73 4504.19 1987.73 4498.11 1987.73 4493.19 1982.8 4493.19 1976.73 4493.19 1970.65 4498.11 1965.73 4504.19 1965.73 4510.26 1965.73 4515.19 1970.65 4515.19 1976.73Z" stroke="#ED7D31" stroke-width="3.4375" stroke-linejoin="round" stroke-miterlimit="10" fill="#ED7D31"/><path d="M4567.19 1898.73C4567.19 1904.8 4562.26 1909.73 4556.19 1909.73 4550.11 1909.73 4545.19 1904.8 4545.19 1898.73 4545.19 1892.65 4550.11 1887.73 4556.19 1887.73 4562.26 1887.73 4567.19 1892.65 4567.19 1898.73Z" stroke="#ED7D31" stroke-width="3.4375" stroke-linejoin="round" stroke-miterlimit="10" fill="#ED7D31"/><path d="M4619.19 1821.73C4619.19 1827.8 4614.26 1832.73 4608.19 1832.73 4602.11 1832.73 4597.19 1827.8 4597.19 1821.73 4597.19 1815.65 4602.11 1810.73 4608.19 1810.73 4614.26 1810.73 4619.19 1815.65 4619.19 1821.73Z" stroke="#ED7D31" stroke-width="3.4375" stroke-linejoin="round" stroke-miterlimit="10" fill="#ED7D31"/></g><g clip-path="url(#clip12)"><path d="M3169.5 2378.5 3171.6 2378.58 3173.6 2377.58 3175.6 2377.58 3177.6 2376.58 3179.6 2376.58 3181.6 2376.58 3183.6 2375.58 3186.6 2375.58 3188.6 2375.58 3190.6 2374.58 3192.6 2374.58 3194.6 2374.58 3196.6 2373.58 3198.6 2373.58 3200.6 2372.58 3202.61 2372.58 3205.61 2372.58 3207.61 2371.58 3209.61 2371.58 3211.61 2371.58 3213.61 2370.58 3215.61 2370.58 3217.61 2370.58 3219.61 2369.58 3221.61 2369.58 3224.61 2368.58 3226.61 2368.58 3228.61 2368.58 3230.61 2367.58 3232.61 2367.58 3234.61 2367.58 3236.61 2366.58 3238.61 2366.58 3240.61 2365.58 3243.61 2365.58 3245.61 2365.58 3247.61 2364.58 3249.61 2364.58 3251.61 2363.58 3253.61 2363.58 3255.61 2363.58 3257.61 2362.58 3260.61 2362.58 3262.61 2362.58 3264.61 2361.58 3266.61 2361.58 3268.61 2360.58 3270.61 2360.58 3272.61 2360.58 3274.61 2359.58 3276.61 2359.58 3279.61 2358.58 3281.61 2358.58 3283.61 2358.58 3285.61 2357.58 3287.61 2357.58 3289.61 2357.58 3291.61 2356.58 3293.61 2356.58 3295.61 2355.58 3298.61 2355.58 3300.61 2355.58 3302.61 2354.58 3304.61 2354.58 3306.61 2353.58 3308.61 2353.58 3310.61 2353.58 3312.61 2352.58 3314.61 2352.58 3317.61 2351.58 3319.61 2351.58 3321.61 2351.58 3323.61 2350.58 3325.61 2350.58 3327.61 2349.58 3329.61 2349.58 3331.61 2349.58 3333.61 2348.58 3336.61 2348.58 3338.61 2347.58 3340.61 2347.58 3342.61 2346.58 3344.61 2346.58 3346.61 2346.58 3348.61 2345.58 3350.61 2345.58 3353.61 2344.58 3355.61 2344.58 3357.61 2344.58 3359.61 2343.58 3361.61 2343.58 3363.61 2342.58 3365.61 2342.58 3367.61 2342.58 3369.61 2341.58 3372.61 2341.58 3374.61 2340.58 3376.61 2340.58 3378.61 2339.58 3380.61 2339.58 3382.61 2339.58 3384.61 2338.58 3386.61 2338.58 3388.61 2337.58 3391.61 2337.58 3393.61 2336.58 3395.61 2336.58 3397.61 2336.58 3399.61 2335.58 3401.61 2335.58 3403.61 2334.58 3405.61 2334.58 3407.61 2333.58 3410.61 2333.58 3412.61 2333.58 3414.61 2332.58 3416.61 2332.58 3418.61 2331.58 3420.61 2331.58 3422.61 2330.58 3424.61 2330.58 3426.61 2330.58 3429.61 2329.58 3431.61 2329.58 3433.61 2328.58 3435.61 2328.58 3437.61 2327.58 3439.61 2327.58 3441.61 2326.58 3443.61 2326.58 3446.61 2326.58 3448.61 2325.58 3450.61 2325.58 3452.61 2324.58 3454.61 2324.58 3456.61 2323.58 3458.61 2323.58 3460.61 2322.58 3462.61 2322.58 3465.61 2322.58 3467.61 2321.58 3469.61 2321.58 3471.61 2320.58 3473.61 2320.58 3475.61 2319.58 3477.61 2319.58 3479.61 2318.58 3481.61 2318.58 3484.61 2317.58 3486.61 2317.58 3488.61 2317.58 3490.61 2316.58 3492.61 2316.58 3494.61 2315.58 3496.61 2315.58 3498.61 2314.58 3500.61 2314.58 3503.61 2313.58 3505.61 2313.58 3507.62 2312.58 3509.62 2312.58 3511.62 2311.58 3513.62 2311.58 3515.62 2311.58 3517.62 2310.58 3519.62 2310.58 3522.62 2309.58 3524.62 2309.58 3526.62 2308.58 3528.62 2308.58 3530.62 2307.58 3532.62 2307.58 3534.62 2306.58 3536.62 2306.58 3539.62 2305.58 3541.62 2305.58 3543.62 2304.58 3545.62 2304.58 3547.62 2303.58 3549.62 2303.58 3551.62 2302.58 3553.62 2302.58 3555.62 2301.58 3558.62 2301.58 3560.62 2301.58 3562.62 2300.58 3564.62 2300.58 3566.62 2299.58 3568.62 2299.58 3570.62 2298.58 3572.62 2298.58 3574.62 2297.58 3577.62 2297.58 3579.62 2296.58 3581.62 2296.58 3583.62 2295.58 3585.62 2295.58 3587.62 2294.58 3589.62 2294.58 3591.62 2293.58 3593.62 2293.58 3596.62 2292.58 3598.62 2292.58 3600.62 2291.58 3602.62 2291.58 3604.62 2290.58 3606.62 2290.58 3608.62 2289.58 3610.62 2289.58 3612.62 2288.58 3615.62 2288.58 3617.62 2287.58 3619.62 2287.58 3621.62 2286.58 3623.62 2286.58 3625.62 2285.58 3627.62 2285.58 3629.62 2284.58 3632.62 2284.58 3634.62 2283.57 3636.62 2283.57 3638.62 2282.57 3640.62 2281.57 3642.62 2281.57 3644.62 2280.57 3646.62 2280.57 3648.62 2279.57 3651.62 2279.57 3653.62 2278.57 3655.62 2278.57 3657.62 2277.57 3659.62 2277.57 3661.62 2276.57 3663.62 2276.57 3665.62 2275.57 3667.62 2275.57 3670.62 2274.57 3672.62 2274.57 3674.62 2273.57 3676.62 2273.57 3678.62 2272.57 3680.62 2272.57 3682.62 2271.57 3684.62 2270.57 3686.62 2270.57 3689.62 2269.57 3691.62 2269.57 3693.62 2268.57 3695.62 2268.57 3697.62 2267.57 3699.62 2267.57 3701.62 2266.57 3703.62 2266.57 3705.62 2265.57 3708.62 2265.57 3710.62 2264.57 3712.62 2263.57 3714.62 2263.57 3716.62 2262.57 3718.62 2262.57 3720.62 2261.57 3722.62 2261.57 3725.62 2260.57 3727.62 2260.57 3729.62 2259.57 3731.62 2258.57 3733.62 2258.57 3735.62 2257.57 3737.62 2257.57 3739.62 2256.57 3741.62 2256.57 3744.62 2255.57 3746.62 2255.57 3748.62 2254.57 3750.62 2253.57 3752.62 2253.57 3754.62 2252.57 3756.62 2252.57 3758.62 2251.57 3760.62 2251.57 3763.62 2250.57 3765.62 2249.57 3767.62 2249.57 3769.62 2248.57 3771.62 2248.57 3773.62 2247.57 3775.62 2247.57 3777.62 2246.57 3779.62 2245.57 3782.62 2245.57 3784.62 2244.57 3786.62 2244.57 3788.62 2243.57 3790.62 2243.57 3792.62 2242.57 3794.62 2241.57 3796.62 2241.57 3798.62 2240.57 3801.62 2240.57 3803.62 2239.57 3805.62 2238.57 3807.62 2238.57 3809.62 2237.57 3811.62 2237.57 3813.63 2236.57 3815.63 2236.57 3818.63 2235.57 3820.63 2234.57 3822.63 2234.57 3824.63 2233.57 3826.63 2233.57 3828.63 2232.57 3830.63 2231.57 3832.63 2231.57 3834.63 2230.57 3837.63 2230.57 3839.63 2229.57 3841.63 2228.57 3843.63 2228.57 3845.63 2227.57 3847.63 2226.57 3849.63 2226.57 3851.63 2225.57 3853.63 2225.57 3856.63 2224.57 3858.63 2223.57 3860.63 2223.57 3862.63 2222.57 3864.63 2222.57 3866.63 2221.57 3868.63 2220.57 3870.63 2220.57 3872.63 2219.57 3875.63 2219.57 3877.63 2218.57 3879.63 2217.57 3881.63 2217.57 3883.63 2216.57 3885.63 2215.57 3887.63 2215.57 3889.63 2214.57 3891.63 2214.57 3894.63 2213.57 3896.63 2212.57 3898.63 2212.57 3900.63 2211.57 3902.63 2210.57 3904.63 2210.57 3906.63 2209.57 3908.63 2208.57 3911.63 2208.57 3913.63 2207.57 3915.63 2207.57 3917.63 2206.57 3919.63 2205.57 3921.63 2205.57 3923.63 2204.57 3925.63 2203.57 3927.63 2203.57 3930.63 2202.57 3932.63 2201.57 3934.63 2201.57 3936.63 2200.57 3938.63 2199.57 3940.63 2199.57 3942.63 2198.57 3944.63 2197.57 3946.63 2197.57 3949.63 2196.57 3951.63 2195.57 3953.63 2195.57 3955.63 2194.57 3957.63 2193.57 3959.63 2193.57 3961.63 2192.57 3963.63 2192.57 3965.63 2191.57 3968.63 2190.57 3970.63 2190.57 3972.63 2189.57 3974.63 2188.57 3976.63 2187.57 3978.63 2187.57 3980.63 2186.57 3982.63 2185.57 3984.63 2185.57 3987.63 2184.57 3989.63 2183.57 3991.63 2183.57 3993.63 2182.57 3995.63 2181.57 3997.63 2181.57 3999.63 2180.57 4001.63 2179.57 4004.63 2179.57 4006.63 2178.57 4008.63 2177.57 4010.63 2177.57 4012.63 2176.57 4014.63 2175.57 4016.63 2175.57 4018.63 2174.57 4020.63 2173.57 4023.63 2172.57 4025.63 2172.57 4027.63 2171.57 4029.63 2170.57 4031.63 2170.57 4033.63 2169.57 4035.63 2168.57 4037.63 2168.57 4039.63 2167.57 4042.63 2166.57 4044.63 2165.57 4046.63 2165.57 4048.63 2164.57 4050.63 2163.57 4052.63 2163.57 4054.63 2162.57 4056.63 2161.57 4058.63 2160.57 4061.63 2160.57 4063.63 2159.57 4065.63 2158.57 4067.63 2158.57 4069.63 2157.57 4071.63 2156.57 4073.63 2155.57 4075.63 2155.57 4077.63 2154.57 4080.63 2153.57 4082.63 2152.57 4084.63 2152.57 4086.63 2151.57 4088.63 2150.57 4090.63 2150.57 4092.63 2149.57 4094.63 2148.57 4097.63 2147.57 4099.63 2147.57 4101.63 2146.57 4103.63 2145.57 4105.63 2144.57 4107.63 2144.57 4109.63 2143.57 4111.63 2142.57 4113.63 2141.57 4116.64 2141.57 4118.64 2140.57 4120.64 2139.57 4122.64 2138.57 4124.64 2138.57 4126.64 2137.57 4128.64 2136.57 4130.64 2135.57 4132.64 2135.57 4135.64 2134.57 4137.64 2133.57 4139.64 2132.57 4141.64 2132.57 4143.64 2131.57 4145.64 2130.57 4147.64 2129.57 4149.64 2128.57 4151.64 2128.57 4154.64 2127.57 4156.64 2126.57 4158.64 2125.57 4160.64 2125.57 4162.64 2124.57 4164.64 2123.57 4166.64 2122.57 4168.64 2121.57 4170.64 2121.57 4173.64 2120.57 4175.64 2119.57 4177.64 2118.57 4179.64 2118.57 4181.64 2117.57 4183.64 2116.57 4185.64 2115.57 4187.64 2114.57 4190.64 2114.57 4192.64 2113.57 4194.64 2112.57 4196.64 2111.57 4198.64 2110.57 4200.64 2110.57 4202.64 2109.57 4204.64 2108.57 4206.64 2107.57 4209.64 2106.57 4211.64 2106.57 4213.64 2105.57 4215.64 2104.57 4217.64 2103.57 4219.64 2102.57 4221.64 2102.57 4223.64 2101.57 4225.64 2100.57 4228.64 2099.57 4230.64 2098.57 4232.64 2097.57 4234.64 2097.57 4236.64 2096.57 4238.64 2095.57 4240.64 2094.57 4242.64 2093.57 4244.64 2092.57 4247.64 2092.57 4249.64 2091.57 4251.64 2090.57 4253.64 2089.57 4255.64 2088.57 4257.64 2087.57 4259.64 2087.57 4261.64 2086.57 4263.64 2085.57 4266.64 2084.57 4268.64 2083.57 4270.64 2082.57 4272.64 2082.57 4274.64 2081.57 4276.64 2080.57 4278.64 2079.57 4280.64 2078.57 4283.64 2077.57 4285.64 2076.57 4287.64 2076.57 4289.64 2075.57 4291.64 2074.57 4293.64 2073.57 4295.64 2072.57 4297.64 2071.57 4299.64 2070.57 4302.64 2070.57 4304.64 2069.57 4306.64 2068.57 4308.64 2067.57 4310.64 2066.57 4312.64 2065.57 4314.64 2064.57 4316.64 2063.57 4318.64 2063.57 4321.64 2062.57 4323.64 2061.57 4325.64 2060.57 4327.64 2059.57 4329.64 2058.57 4331.64 2057.57 4333.64 2056.57 4335.64 2056.57 4337.64 2055.57 4340.64 2054.57 4342.64 2053.57 4344.64 2052.57 4346.64 2051.57 4348.64 2050.57 4350.64 2049.57 4352.64 2048.57 4354.64 2047.57 4356.64 2047.57 4359.64 2046.57 4361.64 2045.57 4363.64 2044.57 4365.64 2043.57 4367.64 2042.57 4369.64 2041.57 4371.64 2040.57 4373.64 2039.57 4376.64 2038.57 4378.64 2037.57 4380.64 2036.57 4382.64 2036.57 4384.64 2035.57 4386.64 2034.57 4388.64 2033.57 4390.64 2032.57 4392.64 2031.57 4395.64 2030.57 4397.64 2029.57 4399.64 2028.57 4401.64 2027.57 4403.64 2026.57 4405.64 2025.57 4407.64 2024.57 4409.64 2023.57 4411.64 2022.57 4414.65 2022.57 4416.65 2021.57 4418.65 2020.57 4420.65 2019.57 4422.65 2018.57 4424.65 2017.57 4426.65 2016.57 4428.65 2015.57 4430.65 2014.57 4433.65 2013.57 4435.65 2012.57 4437.65 2011.57 4439.65 2010.57 4441.65 2009.57 4443.65 2008.57 4445.65 2007.57 4447.65 2006.57 4449.65 2005.57 4452.65 2004.57 4454.65 2003.57 4456.65 2002.57 4458.65 2001.57 4460.65 2000.57 4462.65 1999.57 4464.65 1998.57 4466.65 1997.57 4469.65 1996.57 4471.65 1995.57 4473.65 1994.57 4475.65 1993.57 4477.65 1992.57 4479.65 1991.57 4481.65 1990.57 4483.65 1989.57 4485.65 1988.57 4488.65 1987.57 4490.65 1986.57 4492.65 1985.57 4494.65 1984.57 4496.65 1983.57 4498.65 1982.57 4500.65 1981.57 4502.65 1980.57 4504.65 1979.57 4507.65 1978.57 4509.65 1977.56 4511.65 1976.56 4513.65 1975.56 4515.65 1974.56 4517.65 1973.56 4519.65 1972.56 4521.65 1971.56 4523.65 1970.56 4526.65 1969.56 4528.65 1968.56 4530.65 1967.56 4532.65 1966.56 4534.65 1965.56 4536.65 1964.56 4538.65 1963.56 4540.65 1962.56 4542.65 1961.56 4545.65 1960.56 4547.65 1959.56 4549.65 1958.56 4551.65 1957.56 4553.65 1956.56 4555.65 1954.56 4557.65 1953.56 4559.65 1952.56 4562.65 1951.56 4564.65 1950.56 4566.65 1949.56 4568.65 1948.56 4570.65 1947.56 4572.65 1946.56 4574.65 1945.56 4576.65 1944.56 4578.65 1943.56 4581.65 1942.56 4583.65 1941.56 4585.65 1939.56 4587.65 1938.56 4589.65 1937.56 4591.65 1936.56 4593.65 1935.56 4595.65 1934.56 4597.65 1933.56 4600.65 1932.56 4602.65 1931.56 4604.65 1930.56 4606.65 1929.56 4608.5 1928.5" stroke="#ED7D31" stroke-width="6.875" stroke-linecap="round" stroke-linejoin="round" stroke-miterlimit="10" stroke-dasharray="0 13.75" fill="none"/></g><g clip-path="url(#clip13)"><text fill="#ED7D31" font-family="Calibri,Calibri_MSFontService,sans-serif" font-weight="400" font-size="41" transform="matrix(1 0 0 1 4903.02 1761)">y = 14.051e</text></g><g clip-path="url(#clip14)"><text fill="#ED7D31" font-family="Calibri,Calibri_MSFontService,sans-serif" font-weight="400" font-size="28" transform="matrix(1 0 0 1 5096.32 1749)">4.0706x</text></g><g clip-path="url(#clip15)"><text fill="#ED7D31" font-family="Calibri,Calibri_MSFontService,sans-serif" font-weight="400" font-size="41" transform="matrix(1 0 0 1 2848.87 1625)">-0.45</text></g><g clip-path="url(#clip16)"><text fill="#ED7D31" font-family="Calibri,Calibri_MSFontService,sans-serif" font-weight="400" font-size="41" transform="matrix(1 0 0 1 3109.01 1625)">-0.40</text></g><g clip-path="url(#clip17)"><text fill="#ED7D31" font-family="Calibri,Calibri_MSFontService,sans-serif" font-weight="400" font-size="41" transform="matrix(1 0 0 1 3369.15 1625)">-0.35</text></g><g clip-path="url(#clip18)"><text fill="#ED7D31" font-family="Calibri,Calibri_MSFontService,sans-serif" font-weight="400" font-size="41" transform="matrix(1 0 0 1 3629.29 1625)">-0.30</text></g><g clip-path="url(#clip19)"><text fill="#ED7D31" font-family="Calibri,Calibri_MSFontService,sans-serif" font-weight="400" font-size="41" transform="matrix(1 0 0 1 3889.43 1625)">-0.25</text></g><g clip-path="url(#clip20)"><text fill="#ED7D31" font-family="Calibri,Calibri_MSFontService,sans-serif" font-weight="400" font-size="41" transform="matrix(1 0 0 1 4149.57 1625)">-0.20</text></g><g clip-path="url(#clip21)"><text fill="#ED7D31" font-family="Calibri,Calibri_MSFontService,sans-serif" font-weight="400" font-size="41" transform="matrix(1 0 0 1 4409.71 1625)">-0.15</text></g><g clip-path="url(#clip22)"><text fill="#ED7D31" font-family="Calibri,Calibri_MSFontService,sans-serif" font-weight="400" font-size="41" transform="matrix(1 0 0 1 4669.85 1625)">-0.10</text></g><g clip-path="url(#clip23)"><text fill="#ED7D31" font-family="Calibri,Calibri_MSFontService,sans-serif" font-weight="400" font-size="41" transform="matrix(1 0 0 1 4929.99 1625)">-0.05</text></g><g clip-path="url(#clip24)"><text fill="#ED7D31" font-family="Calibri,Calibri_MSFontService,sans-serif" font-weight="400" font-size="41" transform="matrix(1 0 0 1 5196.45 1625)">0.00</text></g><g clip-path="url(#clip25)"><text fill="#595959" font-family="Calibri,Calibri_MSFontService,sans-serif" font-weight="400" font-size="41" transform="matrix(1 0 0 1 2832.57 2606)">0</text></g><g clip-path="url(#clip26)"><text fill="#595959" font-family="Calibri,Calibri_MSFontService,sans-serif" font-weight="400" font-size="41" transform="matrix(1 0 0 1 2832.57 2452)">2</text></g><g clip-path="url(#clip27)"><text fill="#595959" font-family="Calibri,Calibri_MSFontService,sans-serif" font-weight="400" font-size="41" transform="matrix(1 0 0 1 2832.57 2297)">4</text></g><g clip-path="url(#clip28)"><text fill="#595959" font-family="Calibri,Calibri_MSFontService,sans-serif" font-weight="400" font-size="41" transform="matrix(1 0 0 1 2832.57 2142)">6</text></g><g clip-path="url(#clip29)"><text fill="#595959" font-family="Calibri,Calibri_MSFontService,sans-serif" font-weight="400" font-size="41" transform="matrix(1 0 0 1 2832.57 1988)">8</text></g><g clip-path="url(#clip30)"><text fill="#595959" font-family="Calibri,Calibri_MSFontService,sans-serif" font-weight="400" font-size="41" transform="matrix(1 0 0 1 2811.67 1833)">10</text></g><g clip-path="url(#clip31)"><text fill="#595959" font-family="Calibri,Calibri_MSFontService,sans-serif" font-weight="400" font-size="41" transform="matrix(1 0 0 1 2811.67 1678)">12</text></g><g clip-path="url(#clip32)"><text fill="#4472C4" font-family="Calibri,Calibri_MSFontService,sans-serif" font-weight="400" font-size="41" transform="matrix(1 0 0 1 2855.18 2660)">0.00</text></g><g clip-path="url(#clip33)"><text fill="#4472C4" font-family="Calibri,Calibri_MSFontService,sans-serif" font-weight="400" font-size="41" transform="matrix(1 0 0 1 3245.39 2660)">2.00</text></g><g clip-path="url(#clip34)"><text fill="#4472C4" font-family="Calibri,Calibri_MSFontService,sans-serif" font-weight="400" font-size="41" transform="matrix(1 0 0 1 3635.6 2660)">4.00</text></g><g clip-path="url(#clip35)"><text fill="#4472C4" font-family="Calibri,Calibri_MSFontService,sans-serif" font-weight="400" font-size="41" transform="matrix(1 0 0 1 4025.81 2660)">6.00</text></g><g clip-path="url(#clip36)"><text fill="#4472C4" font-family="Calibri,Calibri_MSFontService,sans-serif" font-weight="400" font-size="41" transform="matrix(1 0 0 1 4416.02 2660)">8.00</text></g><g clip-path="url(#clip37)"><text fill="#4472C4" font-family="Calibri,Calibri_MSFontService,sans-serif" font-weight="400" font-size="41" transform="matrix(1 0 0 1 4795.79 2660)">10.00</text></g><g clip-path="url(#clip38)"><text fill="#4472C4" font-family="Calibri,Calibri_MSFontService,sans-serif" font-weight="400" font-size="41" transform="matrix(1 0 0 1 5186 2660)">12.00</text></g><g clip-path="url(#clip39)"><text fill="#ED7D31" font-family="Calibri,Calibri_MSFontService,sans-serif" font-weight="400" font-size="46" transform="matrix(1 0 0 1 3933.51 1565)">Variance, mm</text></g><g clip-path="url(#clip40)"><text fill="#595959" font-family="Calibri,Calibri_MSFontService,sans-serif" font-weight="400" font-size="46" transform="matrix(6.12323e-17 -1 1 6.12323e-17 2785.98 2347)">Nominal diameter, mm</text></g><g clip-path="url(#clip41)"><text fill="#4472C4" font-family="Calibri,Calibri_MSFontService,sans-serif" font-weight="400" font-size="46" transform="matrix(1 0 0 1 3830.21 2729)">Measured diameter, mm</text></g><rect x="2685.5" y="1463.5" width="2645" height="1335" stroke="#D9D9D9" stroke-width="3.4375" stroke-linejoin="round" stroke-miterlimit="10" fill="none"/></g></svg>