<svg width="2598" height="1258" xmlns="http://www.w3.org/2000/svg" xmlns:xlink="http://www.w3.org/1999/xlink" overflow="hidden"><defs><clipPath id="clip0"><rect x="3179" y="133" width="2598" height="1258"/></clipPath><clipPath id="clip1"><rect x="3178" y="132" width="2598" height="1258"/></clipPath><clipPath id="clip2"><rect x="3178" y="132" width="2598" height="1258"/></clipPath><clipPath id="clip3"><rect x="3178" y="132" width="2598" height="1258"/></clipPath><clipPath id="clip4"><rect x="3178" y="132" width="2598" height="1258"/></clipPath><clipPath id="clip5"><rect x="3178" y="132" width="2598" height="1258"/></clipPath><clipPath id="clip6"><rect x="3178" y="132" width="2598" height="1258"/></clipPath><clipPath id="clip7"><rect x="3178" y="132" width="2598" height="1258"/></clipPath><clipPath id="clip8"><rect x="3452" y="303" width="2034" height="880"/></clipPath><clipPath id="clip9"><rect x="3452" y="303" width="2034" height="880"/></clipPath><clipPath id="clip10"><rect x="3452" y="303" width="2030" height="877"/></clipPath><clipPath id="clip11"><rect x="3178" y="132" width="2598" height="1258"/></clipPath><clipPath id="clip12"><rect x="3178" y="132" width="2598" height="1258"/></clipPath><clipPath id="clip13"><rect x="3178" y="132" width="2598" height="1258"/></clipPath><clipPath id="clip14"><rect x="3178" y="132" width="2598" height="1258"/></clipPath><clipPath id="clip15"><rect x="3178" y="132" width="2598" height="1258"/></clipPath><clipPath id="clip16"><rect x="3178" y="132" width="2598" height="1258"/></clipPath><clipPath id="clip17"><rect x="3178" y="132" width="2598" height="1258"/></clipPath><clipPath id="clip18"><rect x="3178" y="132" width="2598" height="1258"/></clipPath><clipPath id="clip19"><rect x="3178" y="132" width="2598" height="1258"/></clipPath><clipPath id="clip20"><rect x="3178" y="132" width="2598" height="1258"/></clipPath><clipPath id="clip21"><rect x="3178" y="132" width="2598" height="1258"/></clipPath><clipPath id="clip22"><rect x="3178" y="132" width="2598" height="1258"/></clipPath><clipPath id="clip23"><rect x="3178" y="132" width="2598" height="1258"/></clipPath><clipPath id="clip24"><rect x="3178" y="132" width="2598" height="1258"/></clipPath><clipPath id="clip25"><rect x="3178" y="132" width="2598" height="1258"/></clipPath><clipPath id="clip26"><rect x="3178" y="132" width="2598" height="1258"/></clipPath><clipPath id="clip27"><rect x="3178" y="132" width="2598" height="1258"/></clipPath><clipPath id="clip28"><rect x="3178" y="132" width="2598" height="1258"/></clipPath><clipPath id="clip29"><rect x="3178" y="132" width="2598" height="1258"/></clipPath><clipPath id="clip30"><rect x="3178" y="132" width="2598" height="1258"/></clipPath><clipPath id="clip31"><rect x="3178" y="132" width="2598" height="1258"/></clipPath><clipPath id="clip32"><rect x="3178" y="132" width="2598" height="1258"/></clipPath><clipPath id="clip33"><rect x="3178" y="132" width="2598" height="1258"/></clipPath><clipPath id="clip34"><rect x="3178" y="132" width="2598" height="1258"/></clipPath><clipPath id="clip35"><rect x="3178" y="132" width="2598" height="1258"/></clipPath><clipPath id="clip36"><rect x="3178" y="132" width="2598" height="1258"/></clipPath><clipPath id="clip37"><rect x="3178" y="132" width="2598" height="1258"/></clipPath><clipPath id="clip38"><rect x="3178" y="132" width="2598" height="1258"/></clipPath><clipPath id="clip39"><rect x="3178" y="132" width="2598" height="1258"/></clipPath><clipPath id="clip40"><rect x="3178" y="132" width="2598" height="1258"/></clipPath><clipPath id="clip41"><rect x="3178" y="132" width="2598" height="1258"/></clipPath><clipPath id="clip42"><rect x="3178" y="132" width="2598" height="1258"/></clipPath><clipPath id="clip43"><rect x="3178" y="132" width="2598" height="1258"/></clipPath><clipPath id="clip44"><rect x="3178" y="132" width="2598" height="1258"/></clipPath><clipPath id="clip45"><rect x="3178" y="132" width="2598" height="1258"/></clipPath></defs><g clip-path="url(#clip0)" transform="translate(-3179 -133)"><rect x="3179" y="133" width="2598" height="1258" fill="#FFFFFF"/><g clip-path="url(#clip1)"><path d="M3452.5 1033.53 5482.5 1033.53M3452.5 887.529 5482.5 887.529M3452.5 741.525 5482.5 741.525M3452.5 595.52 5482.5 595.52M3452.5 449.515 5482.5 449.515M3452.5 303.5 5482.5 303.5" stroke="#D9D9D9" stroke-width="3.4375" stroke-linejoin="round" stroke-miterlimit="10" fill="none"/></g><g clip-path="url(#clip2)"><path d="M3678.62 303.5 3678.62 1180.5M3903.63 303.5 3903.63 1180.5M4129.64 303.5 4129.64 1180.5M4354.64 303.5 4354.64 1180.5M4580.65 303.5 4580.65 1180.5M4805.66 303.5 4805.66 1180.5M5031.67 303.5 5031.67 1180.5M5257.67 303.5 5257.67 1180.5M5482.5 303.5 5482.5 1180.5" stroke="#D9D9D9" stroke-width="3.4375" stroke-linejoin="round" stroke-miterlimit="10" fill="none"/></g><g clip-path="url(#clip3)"><path d="M0 0 0.000360892 877" stroke="#ED7D31" stroke-width="3.4375" stroke-linejoin="round" stroke-miterlimit="10" fill="none" fill-rule="evenodd" transform="matrix(1 0 0 -1 5482.5 1180.5)"/></g><g clip-path="url(#clip4)"><path d="M5482.5 1180.5 5495.5 1180.5M5482.5 1082.54 5495.5 1082.54M5482.5 985.532 5495.5 985.532M5482.5 887.529 5495.5 887.529M5482.5 790.526 5495.5 790.526M5482.5 693.523 5495.5 693.523M5482.5 595.52 5495.5 595.52M5482.5 498.517 5495.5 498.517M5482.5 401.513 5495.5 401.513M5482.5 303.5 5495.5 303.5" stroke="#ED7D31" stroke-width="3.4375" stroke-linejoin="round" stroke-miterlimit="10" fill="none"/></g><g clip-path="url(#clip5)"><path d="M0 0 0.000360892 877" stroke="#4472C4" stroke-width="3.4375" stroke-linejoin="round" stroke-miterlimit="10" fill="none" fill-rule="evenodd" transform="matrix(1 0 0 -1 3452.5 1180.5)"/></g><g clip-path="url(#clip6)"><path d="M3439.5 1180.5 3452.5 1180.5M3439.5 1033.53 3452.5 1033.53M3439.5 887.529 3452.5 887.529M3439.5 741.525 3452.5 741.525M3439.5 595.52 3452.5 595.52M3439.5 449.515 3452.5 449.515M3439.5 303.5 3452.5 303.5" stroke="#4472C4" stroke-width="3.4375" stroke-linejoin="round" stroke-miterlimit="10" fill="none"/></g><g clip-path="url(#clip7)"><path d="M3452.5 1180.5 5482.5 1180.5" stroke="#BFBFBF" stroke-width="3.4375" stroke-linejoin="round" stroke-miterlimit="10" fill="none" fill-rule="evenodd"/></g><g clip-path="url(#clip8)"><path d="M3678.5 989.5C3753.69 963.052 3828.88 936.562 3904.07 910.155 3979.26 883.746 4054.45 857.46 4129.64 831.052 4204.83 804.645 4280.02 776.938 4355.21 751.707 4430.4 726.475 4505.6 703.678 4580.79 679.663 4655.98 655.649 4731.17 632.242 4806.36 607.619 4881.55 582.996 4956.74 557.278 5031.93 531.925 5107.12 506.571 5182.31 480.975 5257.5 455.5" stroke="#4472C4" stroke-width="6.875" stroke-linecap="round" stroke-linejoin="round" stroke-miterlimit="10" fill="none"/></g><g clip-path="url(#clip9)"><path d="M3678.5 1076.5C3753.69 1020.22 3828.88 962.855 3904.07 907.657 3979.26 852.458 4054.45 790.765 4129.64 745.307 4204.83 699.849 4280.02 656.556 4355.21 634.91 4430.4 613.263 4505.6 625.169 4580.79 615.428 4655.98 605.687 4731.17 586.205 4806.36 576.464 4881.55 566.723 4956.74 563.476 5031.93 556.982 5107.12 550.488 5182.31 543.994 5257.5 537.5" stroke="#ED7D31" stroke-width="6.875" stroke-linecap="round" stroke-linejoin="round" stroke-miterlimit="10" fill="none"/></g><g clip-path="url(#clip10)"><path d="M3678.5 1021.5 3680.62 1020.53 3683.62 1018.53 3686.62 1016.53 3688.62 1014.53 3691.62 1013.53 3694.62 1011.53 3696.62 1009.53 3699.62 1007.53 3702.62 1006.53 3704.62 1004.53 3707.62 1002.53 3710.62 1001.53 3713.62 999.533 3715.62 997.533 3718.62 996.533 3721.62 994.533 3723.62 992.533 3726.62 991.533 3729.62 989.533 3731.62 987.533 3734.62 986.533 3737.62 984.532 3739.62 982.532 3742.62 981.532 3745.62 979.532 3747.62 977.532 3750.62 976.532 3753.62 974.532 3755.62 973.532 3758.62 971.532 3761.62 969.532 3763.62 968.532 3766.62 966.532 3769.62 965.532 3771.62 963.532 3774.62 962.532 3777.62 960.532 3779.62 959.532 3782.62 957.532 3785.62 955.531 3787.62 954.531 3790.62 952.531 3793.62 951.531 3795.62 949.531 3798.62 948.531 3801.62 946.531 3804.62 945.531 3806.62 943.531 3809.63 942.531 3812.63 940.531 3814.63 939.531 3817.63 937.531 3820.63 936.531 3822.63 934.531 3825.63 933.531 3828.63 932.531 3830.63 930.531 3833.63 929.531 3836.63 927.531 3838.63 926.531 3841.63 924.531 3844.63 923.53 3846.63 921.53 3849.63 920.53 3852.63 919.53 3854.63 917.53 3857.63 916.53 3860.63 914.53 3862.63 913.53 3865.63 912.53 3868.63 910.53 3870.63 909.53 3873.63 907.53 3876.63 906.53 3878.63 905.53 3881.63 903.53 3884.63 902.53 3886.63 901.53 3889.63 899.53 3892.63 898.53 3894.63 897.53 3897.63 895.53 3900.63 894.53 3903.63 893.529 3905.63 891.529 3908.63 890.529 3911.63 889.529 3913.63 887.529 3916.63 886.529 3919.63 885.529 3921.63 883.529 3924.63 882.529 3927.63 881.529 3929.63 879.529 3932.63 878.529 3935.63 877.529 3937.63 876.529 3940.63 874.529 3943.63 873.529 3945.63 872.529 3948.63 870.529 3951.63 869.529 3953.63 868.529 3956.63 867.529 3959.63 865.529 3961.63 864.529 3964.63 863.529 3967.63 862.528 3969.63 860.528 3972.63 859.528 3975.63 858.528 3977.63 857.528 3980.63 855.528 3983.63 854.528 3985.63 853.528 3988.63 852.528 3991.63 851.528 3994.63 849.528 3996.63 848.528 3999.63 847.528 4002.63 846.528 4004.63 845.528 4007.63 843.528 4010.63 842.528 4012.63 841.528 4015.63 840.528 4018.63 839.528 4020.63 837.528 4023.63 836.528 4026.63 835.528 4028.63 834.528 4031.63 833.528 4034.63 832.527 4036.63 830.527 4039.63 829.527 4042.63 828.527 4044.63 827.527 4047.63 826.527 4050.63 825.527 4052.63 823.527 4055.63 822.527 4058.63 821.527 4060.63 820.527 4063.63 819.527 4066.63 818.527 4068.63 817.527 4071.63 816.527 4074.63 814.527 4076.63 813.527 4079.63 812.527 4082.63 811.527 4084.63 810.527 4087.63 809.527 4090.63 808.527 4093.63 807.527 4095.63 806.527 4098.63 804.527 4101.63 803.526 4103.63 802.526 4106.63 801.526 4109.64 800.526 4111.64 799.526 4114.64 798.526 4117.64 797.526 4119.64 796.526 4122.64 795.526 4125.64 794.526 4127.64 793.526 4130.64 792.526 4133.64 790.526 4135.64 789.526 4138.64 788.526 4141.64 787.526 4143.64 786.526 4146.64 785.526 4149.64 784.526 4151.64 783.526 4154.64 782.526 4157.64 781.526 4159.64 780.526 4162.64 779.526 4165.64 778.526 4167.64 777.526 4170.64 776.526 4173.64 775.526 4175.64 774.526 4178.64 773.526 4181.64 772.526 4184.64 771.526 4186.64 770.525 4189.64 769.525 4192.64 768.525 4194.64 767.525 4197.64 766.525 4200.64 765.525 4202.64 764.525 4205.64 763.525 4208.64 762.525 4210.64 761.525 4213.64 760.525 4216.64 759.525 4218.64 758.525 4221.64 757.525 4224.64 756.525 4226.64 755.525 4229.64 754.525 4232.64 753.525 4234.64 752.525 4237.64 751.525 4240.64 750.525 4242.64 749.525 4245.64 748.525 4248.64 747.525 4250.64 746.525 4253.64 745.525 4256.64 744.525 4258.64 743.525 4261.64 742.525 4264.64 741.525 4266.64 740.524 4269.64 739.524 4272.64 738.524 4274.64 737.524 4277.64 736.524 4280.64 736.524 4283.64 735.524 4285.64 734.524 4288.64 733.524 4291.64 732.524 4293.64 731.524 4296.64 730.524 4299.64 729.524 4301.64 728.524 4304.64 727.524 4307.64 726.524 4309.64 725.524 4312.64 724.524 4315.64 723.524 4317.64 723.524 4320.64 722.524 4323.64 721.524 4325.64 720.524 4328.64 719.524 4331.64 718.524 4333.64 717.524 4336.64 716.524 4339.64 715.524 4341.64 714.524 4344.64 714.524 4347.64 713.524 4349.64 712.524 4352.64 711.523 4355.64 710.523 4357.64 709.523 4360.64 708.523 4363.64 707.523 4365.64 706.523 4368.64 706.523 4371.64 705.523 4374.64 704.523 4376.64 703.523 4379.64 702.523 4382.64 701.523 4384.64 700.523 4387.64 699.523 4390.64 699.523 4392.64 698.523 4395.64 697.523 4398.64 696.523 4400.64 695.523 4403.64 694.523 4406.64 693.523 4408.65 693.523 4411.65 692.523 4414.65 691.523 4416.65 690.523 4419.65 689.523 4422.65 688.523 4424.65 687.523 4427.65 687.523 4430.65 686.523 4432.65 685.523 4435.65 684.523 4438.65 683.523 4440.65 682.523 4443.65 682.523 4446.65 681.523 4448.65 680.522 4451.65 679.522 4454.65 678.522 4456.65 677.522 4459.65 677.522 4462.65 676.522 4464.65 675.522 4467.65 674.522 4470.65 673.522 4473.65 672.522 4475.65 672.522 4478.65 671.522 4481.65 670.522 4483.65 669.522 4486.65 668.522 4489.65 668.522 4491.65 667.522 4494.65 666.522 4497.65 665.522 4499.65 664.522 4502.65 664.522 4505.65 663.522 4507.65 662.522 4510.65 661.522 4513.65 660.522 4515.65 660.522 4518.65 659.522 4521.65 658.522 4523.65 657.522 4526.65 656.522 4529.65 656.522 4531.65 655.522 4534.65 654.522 4537.65 653.522 4539.65 653.522 4542.65 652.522 4545.65 651.522 4547.65 650.521 4550.65 649.521 4553.65 649.521 4555.65 648.521 4558.65 647.521 4561.65 646.521 4564.65 646.521 4566.65 645.521 4569.65 644.521 4572.65 643.521 4574.65 642.521 4577.65 642.521 4580.65 641.521 4582.65 640.521 4585.65 639.521 4588.65 639.521 4590.65 638.521 4593.65 637.521 4596.65 636.521 4598.65 636.521 4601.65 635.521 4604.65 634.521 4606.65 633.521 4609.65 633.521 4612.65 632.521 4614.65 631.521 4617.65 630.521 4620.65 630.521 4622.65 629.521 4625.65 628.521 4628.65 627.521 4630.65 627.521 4633.65 626.521 4636.65 625.521 4638.65 624.521 4641.65 624.521 4644.65 623.521 4646.65 622.521 4649.65 622.521 4652.65 621.521 4654.65 620.521 4657.65 619.521 4660.65 619.521 4663.65 618.52 4665.65 617.52 4668.65 616.52 4671.65 616.52 4673.65 615.52 4676.65 614.52 4679.65 614.52 4681.65 613.52 4684.65 612.52 4687.65 611.52 4689.65 611.52 4692.65 610.52 4695.65 609.52 4697.65 609.52 4700.65 608.52 4703.65 607.52 4705.65 607.52 4708.65 606.52 4711.65 605.52 4713.65 604.52 4716.65 604.52 4719.66 603.52 4721.66 602.52 4724.66 602.52 4727.66 601.52 4729.66 600.52 4732.66 600.52 4735.66 599.52 4737.66 598.52 4740.66 597.52 4743.66 597.52 4745.66 596.52 4748.66 595.52 4751.66 595.52 4754.66 594.52 4756.66 593.52 4759.66 593.52 4762.66 592.52 4764.66 591.52 4767.66 591.52 4770.66 590.52 4772.66 589.52 4775.66 589.52 4778.66 588.519 4780.66 587.519 4783.66 587.519 4786.66 586.519 4788.66 585.519 4791.66 584.519 4794.66 584.519 4796.66 583.519 4799.66 582.519 4802.66 582.519 4804.66 581.519 4807.66 580.519 4810.66 580.519 4812.66 579.519 4815.66 578.519 4818.66 578.519 4820.66 577.519 4823.66 576.519 4826.66 576.519 4828.66 575.519 4831.66 575.519 4834.66 574.519 4836.66 573.519 4839.66 573.519 4842.66 572.519 4844.66 571.519 4847.66 571.519 4850.66 570.519 4853.66 569.519 4855.66 569.519 4858.66 568.519 4861.66 567.519 4863.66 567.519 4866.66 566.519 4869.66 565.519 4871.66 565.519 4874.66 564.519 4877.66 563.519 4879.66 563.519 4882.66 562.519 4885.66 562.519 4887.66 561.519 4890.66 560.519 4893.66 560.519 4895.66 559.519 4898.66 558.518 4901.66 558.518 4903.66 557.518 4906.66 556.518 4909.66 556.518 4911.66 555.518 4914.66 555.518 4917.66 554.518 4919.66 553.518 4922.66 553.518 4925.66 552.518 4927.66 551.518 4930.66 551.518 4933.66 550.518 4935.66 550.518 4938.66 549.518 4941.66 548.518 4944.66 548.518 4946.66 547.518 4949.66 547.518 4952.66 546.518 4954.66 545.518 4957.66 545.518 4960.66 544.518 4962.66 543.518 4965.66 543.518 4968.66 542.518 4970.66 542.518 4973.66 541.518 4976.66 540.518 4978.66 540.518 4981.66 539.518 4984.66 539.518 4986.66 538.518 4989.66 537.518 4992.66 537.518 4994.66 536.518 4997.66 536.518 5000.66 535.518 5002.66 534.518 5005.66 534.518 5008.66 533.518 5010.66 533.518 5013.66 532.518 5016.67 531.518 5018.67 531.518 5021.67 530.518 5024.67 530.518 5026.67 529.518 5029.67 528.518 5032.67 528.518 5034.67 527.517 5037.67 527.517 5040.67 526.517 5043.67 525.517 5045.67 525.517 5048.67 524.517 5051.67 524.517 5053.67 523.517 5056.67 522.517 5059.67 522.517 5061.67 521.517 5064.67 521.517 5067.67 520.517 5069.67 520.517 5072.67 519.517 5075.67 518.517 5077.67 518.517 5080.67 517.517 5083.67 517.517 5085.67 516.517 5088.67 516.517 5091.67 515.517 5093.67 514.517 5096.67 514.517 5099.67 513.517 5101.67 513.517 5104.67 512.517 5107.67 512.517 5109.67 511.517 5112.67 510.517 5115.67 510.517 5117.67 509.517 5120.67 509.517 5123.67 508.517 5125.67 508.517 5128.67 507.517 5131.67 506.517 5134.67 506.517 5136.67 505.517 5139.67 505.517 5142.67 504.517 5144.67 504.517 5147.67 503.517 5150.67 502.517 5152.67 502.517 5155.67 501.517 5158.67 501.517 5160.67 500.517 5163.67 500.517 5166.67 499.517 5168.67 499.517 5171.67 498.517 5174.67 497.516 5176.67 497.516 5179.67 496.516 5182.67 496.516 5184.67 495.516 5187.67 495.516 5190.67 494.516 5192.67 494.516 5195.67 493.516 5198.67 493.516 5200.67 492.516 5203.67 491.516 5206.67 491.516 5208.67 490.516 5211.67 490.516 5214.67 489.516 5216.67 489.516 5219.67 488.516 5222.67 488.516 5224.67 487.516 5227.67 487.516 5230.67 486.516 5233.67 485.516 5235.67 485.516 5238.67 484.516 5241.67 484.516 5243.67 483.516 5246.67 483.516 5249.67 482.516 5251.67 482.516 5254.67 481.516 5257.5 481.5" stroke="#ED7D31" stroke-width="6.875" stroke-linecap="round" stroke-linejoin="round" stroke-miterlimit="10" stroke-dasharray="0 13.75" fill="none"/></g><g clip-path="url(#clip11)"><text fill="#ED7D31" font-family="Calibri,Calibri_MSFontService,sans-serif" font-weight="400" font-size="41" transform="matrix(1 0 0 1 5011.87 1114)">y = 0.2307ln(x) </text></g><g clip-path="url(#clip12)"><text fill="#ED7D31" font-family="Calibri,Calibri_MSFontService,sans-serif" font-weight="400" font-size="41" transform="matrix(1 0 0 1 5268.01 1114)">-</text></g><g clip-path="url(#clip13)"><text fill="#ED7D31" font-family="Calibri,Calibri_MSFontService,sans-serif" font-weight="400" font-size="41" transform="matrix(1 0 0 1 5289.97 1114)">0.6223</text></g><g clip-path="url(#clip14)"><text fill="#595959" font-family="Calibri,Calibri_MSFontService,sans-serif" font-weight="400" font-size="41" transform="matrix(1 0 0 1 5521.1 1192)">-0.45</text></g><g clip-path="url(#clip15)"><text fill="#595959" font-family="Calibri,Calibri_MSFontService,sans-serif" font-weight="400" font-size="41" transform="matrix(1 0 0 1 5521.1 1094)">-0.40</text></g><g clip-path="url(#clip16)"><text fill="#595959" font-family="Calibri,Calibri_MSFontService,sans-serif" font-weight="400" font-size="41" transform="matrix(1 0 0 1 5521.1 997)">-0.35</text></g><g clip-path="url(#clip17)"><text fill="#595959" font-family="Calibri,Calibri_MSFontService,sans-serif" font-weight="400" font-size="41" transform="matrix(1 0 0 1 5521.1 900)">-0.30</text></g><g clip-path="url(#clip18)"><text fill="#595959" font-family="Calibri,Calibri_MSFontService,sans-serif" font-weight="400" font-size="41" transform="matrix(1 0 0 1 5521.1 802)">-0.25</text></g><g clip-path="url(#clip19)"><text fill="#595959" font-family="Calibri,Calibri_MSFontService,sans-serif" font-weight="400" font-size="41" transform="matrix(1 0 0 1 5521.1 705)">-0.20</text></g><g clip-path="url(#clip20)"><text fill="#595959" font-family="Calibri,Calibri_MSFontService,sans-serif" font-weight="400" font-size="41" transform="matrix(1 0 0 1 5521.1 607)">-0.15</text></g><g clip-path="url(#clip21)"><text fill="#595959" font-family="Calibri,Calibri_MSFontService,sans-serif" font-weight="400" font-size="41" transform="matrix(1 0 0 1 5521.1 510)">-0.10</text></g><g clip-path="url(#clip22)"><text fill="#595959" font-family="Calibri,Calibri_MSFontService,sans-serif" font-weight="400" font-size="41" transform="matrix(1 0 0 1 5521.1 413)">-0.05</text></g><g clip-path="url(#clip23)"><text fill="#595959" font-family="Calibri,Calibri_MSFontService,sans-serif" font-weight="400" font-size="41" transform="matrix(1 0 0 1 5521.1 315)">0.00</text></g><g clip-path="url(#clip24)"><text fill="#595959" font-family="Calibri,Calibri_MSFontService,sans-serif" font-weight="400" font-size="41" transform="matrix(1 0 0 1 3341.43 1192)">0.00</text></g><g clip-path="url(#clip25)"><text fill="#595959" font-family="Calibri,Calibri_MSFontService,sans-serif" font-weight="400" font-size="41" transform="matrix(1 0 0 1 3341.43 1046)">2.00</text></g><g clip-path="url(#clip26)"><text fill="#595959" font-family="Calibri,Calibri_MSFontService,sans-serif" font-weight="400" font-size="41" transform="matrix(1 0 0 1 3341.43 900)">4.00</text></g><g clip-path="url(#clip27)"><text fill="#595959" font-family="Calibri,Calibri_MSFontService,sans-serif" font-weight="400" font-size="41" transform="matrix(1 0 0 1 3341.43 754)">6.00</text></g><g clip-path="url(#clip28)"><text fill="#595959" font-family="Calibri,Calibri_MSFontService,sans-serif" font-weight="400" font-size="41" transform="matrix(1 0 0 1 3341.43 607)">8.00</text></g><g clip-path="url(#clip29)"><text fill="#595959" font-family="Calibri,Calibri_MSFontService,sans-serif" font-weight="400" font-size="41" transform="matrix(1 0 0 1 3320.53 461)">10.00</text></g><g clip-path="url(#clip30)"><text fill="#595959" font-family="Calibri,Calibri_MSFontService,sans-serif" font-weight="400" font-size="41" transform="matrix(1 0 0 1 3320.53 315)">12.00</text></g><g clip-path="url(#clip31)"><text fill="#595959" font-family="Calibri,Calibri_MSFontService,sans-serif" font-weight="400" font-size="41" transform="matrix(1 0 0 1 3442.35 1245)">2</text></g><g clip-path="url(#clip32)"><text fill="#595959" font-family="Calibri,Calibri_MSFontService,sans-serif" font-weight="400" font-size="41" transform="matrix(1 0 0 1 3667.91 1245)">3</text></g><g clip-path="url(#clip33)"><text fill="#595959" font-family="Calibri,Calibri_MSFontService,sans-serif" font-weight="400" font-size="41" transform="matrix(1 0 0 1 3893.47 1245)">4</text></g><g clip-path="url(#clip34)"><text fill="#595959" font-family="Calibri,Calibri_MSFontService,sans-serif" font-weight="400" font-size="41" transform="matrix(1 0 0 1 4119.03 1245)">5</text></g><g clip-path="url(#clip35)"><text fill="#595959" font-family="Calibri,Calibri_MSFontService,sans-serif" font-weight="400" font-size="41" transform="matrix(1 0 0 1 4344.59 1245)">6</text></g><g clip-path="url(#clip36)"><text fill="#595959" font-family="Calibri,Calibri_MSFontService,sans-serif" font-weight="400" font-size="41" transform="matrix(1 0 0 1 4570.15 1245)">7</text></g><g clip-path="url(#clip37)"><text fill="#595959" font-family="Calibri,Calibri_MSFontService,sans-serif" font-weight="400" font-size="41" transform="matrix(1 0 0 1 4795.71 1245)">8</text></g><g clip-path="url(#clip38)"><text fill="#595959" font-family="Calibri,Calibri_MSFontService,sans-serif" font-weight="400" font-size="41" transform="matrix(1 0 0 1 5021.27 1245)">9</text></g><g clip-path="url(#clip39)"><text fill="#595959" font-family="Calibri,Calibri_MSFontService,sans-serif" font-weight="400" font-size="41" transform="matrix(1 0 0 1 5236.37 1245)">10</text></g><g clip-path="url(#clip40)"><text fill="#595959" font-family="Calibri,Calibri_MSFontService,sans-serif" font-weight="400" font-size="41" transform="matrix(1 0 0 1 5461.93 1245)">11</text></g><g clip-path="url(#clip41)"><rect x="5613.5" y="599.5" width="70" height="285" stroke="#FFFFFF" stroke-width="3.4375" stroke-linejoin="round" stroke-miterlimit="10" fill="none"/></g><g clip-path="url(#clip42)"><text fill="#ED7D31" font-family="Calibri,Calibri_MSFontService,sans-serif" font-weight="400" font-size="46" transform="matrix(6.12323e-17 -1 1 6.12323e-17 5664.58 871)">Variance, mm</text></g><g clip-path="url(#clip43)"><text fill="#4472C4" font-family="Calibri,Calibri_MSFontService,sans-serif" font-weight="400" font-size="46" transform="matrix(6.12323e-17 -1 1 6.12323e-17 3294.84 974)">Measured diameter, mm</text></g><g clip-path="url(#clip44)"><text fill="#595959" font-family="Calibri,Calibri_MSFontService,sans-serif" font-weight="400" font-size="46" transform="matrix(1 0 0 1 4251.33 1314)">Nominal diameter, mm</text></g><g clip-path="url(#clip45)"><text fill="#595959" font-family="Calibri,Calibri_MSFontService,sans-serif" font-weight="400" font-size="64" transform="matrix(1 0 0 1 4238.17 228)">Internal diameters</text></g></g></svg>