<svg width="2599" height="1299" xmlns="http://www.w3.org/2000/svg" xmlns:xlink="http://www.w3.org/1999/xlink" overflow="hidden"><defs><clipPath id="clip0"><rect x="3073" y="138" width="2599" height="1299"/></clipPath><clipPath id="clip1"><rect x="3073" y="137" width="2598" height="1299"/></clipPath><clipPath id="clip2"><rect x="3073" y="137" width="2598" height="1299"/></clipPath><clipPath id="clip3"><rect x="3073" y="137" width="2598" height="1299"/></clipPath><clipPath id="clip4"><rect x="3073" y="137" width="2598" height="1299"/></clipPath><clipPath id="clip5"><rect x="3073" y="137" width="2598" height="1299"/></clipPath><clipPath id="clip6"><rect x="3073" y="137" width="2598" height="1299"/></clipPath><clipPath id="clip7"><rect x="3073" y="137" width="2598" height="1299"/></clipPath><clipPath id="clip8"><rect x="3347" y="314" width="2033" height="908"/></clipPath><clipPath id="clip9"><rect x="3347" y="314" width="2033" height="908"/></clipPath><clipPath id="clip10"><rect x="3347" y="314" width="2030" height="904"/></clipPath><clipPath id="clip11"><rect x="3347" y="314" width="2030" height="904"/></clipPath><clipPath id="clip12"><rect x="3347" y="314" width="2030" height="904"/></clipPath><clipPath id="clip13"><rect x="3347" y="314" width="2030" height="904"/></clipPath><clipPath id="clip14"><rect x="3073" y="137" width="2598" height="1299"/></clipPath><clipPath id="clip15"><rect x="3073" y="137" width="2598" height="1299"/></clipPath><clipPath id="clip16"><rect x="3073" y="137" width="2598" height="1299"/></clipPath><clipPath id="clip17"><rect x="3073" y="137" width="2598" height="1299"/></clipPath><clipPath id="clip18"><rect x="3073" y="137" width="2598" height="1299"/></clipPath><clipPath id="clip19"><rect x="3073" y="137" width="2598" height="1299"/></clipPath><clipPath id="clip20"><rect x="3073" y="137" width="2598" height="1299"/></clipPath><clipPath id="clip21"><rect x="3073" y="137" width="2598" height="1299"/></clipPath><clipPath id="clip22"><rect x="3073" y="137" width="2598" height="1299"/></clipPath><clipPath id="clip23"><rect x="3073" y="137" width="2598" height="1299"/></clipPath><clipPath id="clip24"><rect x="3073" y="137" width="2598" height="1299"/></clipPath><clipPath id="clip25"><rect x="3073" y="137" width="2598" height="1299"/></clipPath><clipPath id="clip26"><rect x="3073" y="137" width="2598" height="1299"/></clipPath><clipPath id="clip27"><rect x="3073" y="137" width="2598" height="1299"/></clipPath><clipPath id="clip28"><rect x="3073" y="137" width="2598" height="1299"/></clipPath><clipPath id="clip29"><rect x="3073" y="137" width="2598" height="1299"/></clipPath><clipPath id="clip30"><rect x="3073" y="137" width="2598" height="1299"/></clipPath><clipPath id="clip31"><rect x="3073" y="137" width="2598" height="1299"/></clipPath><clipPath id="clip32"><rect x="3073" y="137" width="2598" height="1299"/></clipPath><clipPath id="clip33"><rect x="3073" y="137" width="2598" height="1299"/></clipPath><clipPath id="clip34"><rect x="3073" y="137" width="2598" height="1299"/></clipPath><clipPath id="clip35"><rect x="3073" y="137" width="2598" height="1299"/></clipPath><clipPath id="clip36"><rect x="3073" y="137" width="2598" height="1299"/></clipPath><clipPath id="clip37"><rect x="3073" y="137" width="2598" height="1299"/></clipPath><clipPath id="clip38"><rect x="3073" y="137" width="2598" height="1299"/></clipPath><clipPath id="clip39"><rect x="3073" y="137" width="2598" height="1299"/></clipPath><clipPath id="clip40"><rect x="3073" y="137" width="2598" height="1299"/></clipPath><clipPath id="clip41"><rect x="3073" y="137" width="2598" height="1299"/></clipPath><clipPath id="clip42"><rect x="3073" y="137" width="2598" height="1299"/></clipPath><clipPath id="clip43"><rect x="3073" y="137" width="2598" height="1299"/></clipPath><clipPath id="clip44"><rect x="3073" y="137" width="2598" height="1299"/></clipPath><clipPath id="clip45"><rect x="3073" y="137" width="2598" height="1299"/></clipPath></defs><g clip-path="url(#clip0)" transform="translate(-3073 -138)"><rect x="3073" y="138" width="2599" height="1299" fill="#FFFFFF"/><g clip-path="url(#clip1)"><path d="M3347.5 1068.54 5377.5 1068.54M3347.5 917.53 5377.5 917.53M3347.5 766.525 5377.5 766.525M3347.5 615.52 5377.5 615.52M3347.5 464.515 5377.5 464.515M3347.5 314.5 5377.5 314.5" stroke="#D9D9D9" stroke-width="3.4375" stroke-linejoin="round" stroke-miterlimit="10" fill="none"/></g><g clip-path="url(#clip2)"><path d="M3572.62 314.5 3572.62 1218.5M3798.62 314.5 3798.62 1218.5M4023.63 314.5 4023.63 1218.5M4249.64 314.5 4249.64 1218.5M4475.65 314.5 4475.65 1218.5M4700.65 314.5 4700.65 1218.5M4926.66 314.5 4926.66 1218.5M5151.67 314.5 5151.67 1218.5M5377.5 314.5 5377.5 1218.5" stroke="#D9D9D9" stroke-width="3.4375" stroke-linejoin="round" stroke-miterlimit="10" fill="none"/></g><g clip-path="url(#clip3)"><path d="M0 0 0.000360892 904" stroke="#ED7D31" stroke-width="3.4375" stroke-linejoin="round" stroke-miterlimit="10" fill="none" fill-rule="evenodd" transform="matrix(1 0 0 -1 5377.5 1218.5)"/></g><g clip-path="url(#clip4)"><path d="M5377.5 1218.5 5390.5 1218.5M5377.5 1118.54 5390.5 1118.54M5377.5 1017.53 5390.5 1017.53M5377.5 917.53 5390.5 917.53M5377.5 816.527 5390.5 816.527M5377.5 716.524 5390.5 716.524M5377.5 615.52 5390.5 615.52M5377.5 515.517 5390.5 515.517M5377.5 414.514 5390.5 414.514M5377.5 314.5 5390.5 314.5" stroke="#ED7D31" stroke-width="3.4375" stroke-linejoin="round" stroke-miterlimit="10" fill="none"/></g><g clip-path="url(#clip5)"><path d="M0 0 0.000360892 904" stroke="#4472C4" stroke-width="3.4375" stroke-linejoin="round" stroke-miterlimit="10" fill="none" fill-rule="evenodd" transform="matrix(1 0 0 -1 3347.5 1218.5)"/></g><g clip-path="url(#clip6)"><path d="M3334.5 1218.5 3347.5 1218.5M3334.5 1068.54 3347.5 1068.54M3334.5 917.53 3347.5 917.53M3334.5 766.525 3347.5 766.525M3334.5 615.52 3347.5 615.52M3334.5 464.515 3347.5 464.515M3334.5 314.5 3347.5 314.5" stroke="#4472C4" stroke-width="3.4375" stroke-linejoin="round" stroke-miterlimit="10" fill="none"/></g><g clip-path="url(#clip7)"><path d="M3347.5 1218.5 5377.5 1218.5" stroke="#BFBFBF" stroke-width="3.4375" stroke-linejoin="round" stroke-miterlimit="10" fill="none" fill-rule="evenodd"/></g><g clip-path="url(#clip8)"><path d="M3572.5 1022.5C3647.69 995.209 3722.88 967.877 3798.07 940.629 3873.26 913.38 3948.45 886.257 4023.64 859.008 4098.83 831.76 4174.02 803.172 4249.21 777.137 4324.4 751.102 4399.6 727.578 4474.79 702.8 4549.98 678.021 4625.17 653.869 4700.36 628.462 4775.55 603.055 4850.74 576.518 4925.93 550.358 5001.12 524.197 5076.31 497.786 5151.5 471.5" stroke="#4472C4" stroke-width="6.875" stroke-linecap="round" stroke-linejoin="round" stroke-miterlimit="10" fill="none"/></g><g clip-path="url(#clip9)"><path d="M3572.5 1111.5C3647.69 1053.41 3722.88 994.213 3798.07 937.245 3873.26 880.276 3948.45 826.659 4023.64 769.691 4098.83 712.723 4174.02 620.01 4249.21 595.436 4324.4 570.861 4399.6 613.308 4474.79 622.245 4549.98 631.181 4625.17 656.872 4700.36 649.053 4775.55 641.234 4850.74 603.255 4925.93 575.33 5001.12 547.404 5076.31 512.777 5151.5 481.5" stroke="#ED7D31" stroke-width="6.875" stroke-linecap="round" stroke-linejoin="round" stroke-miterlimit="10" fill="none"/></g><g clip-path="url(#clip10)"><path d="M0 0 1579 549" stroke="#4472C4" stroke-width="6.875" stroke-linecap="round" stroke-linejoin="round" stroke-miterlimit="10" stroke-dasharray="0 13.75" fill="none" fill-rule="evenodd" transform="matrix(1 0 0 -1 3572.5 1018.5)"/></g><g clip-path="url(#clip11)"><path d="M0 0 1579 549" stroke="#4472C4" stroke-width="6.875" stroke-linecap="round" stroke-linejoin="round" stroke-miterlimit="10" stroke-dasharray="0 13.75" fill="none" fill-rule="evenodd" transform="matrix(1 0 0 -1 3572.5 1018.5)"/></g><g clip-path="url(#clip12)"><path d="M0 0 1579 549" stroke="#4472C4" stroke-width="6.875" stroke-linecap="round" stroke-linejoin="round" stroke-miterlimit="10" stroke-dasharray="0 13.75" fill="none" fill-rule="evenodd" transform="matrix(1 0 0 -1 3572.5 1018.5)"/></g><g clip-path="url(#clip13)"><path d="M0 0 1579 547" stroke="#ED7D31" stroke-width="6.875" stroke-linecap="round" stroke-linejoin="round" stroke-miterlimit="10" stroke-dasharray="0 13.75" fill="none" fill-rule="evenodd" transform="matrix(1 0 0 -1 3572.5 991.5)"/></g><g clip-path="url(#clip14)"><text fill="#595959" font-family="Calibri,Calibri_MSFontService,sans-serif" font-weight="400" font-size="41" transform="matrix(1 0 0 1 5415.68 1230)">-0.45</text></g><g clip-path="url(#clip15)"><text fill="#595959" font-family="Calibri,Calibri_MSFontService,sans-serif" font-weight="400" font-size="41" transform="matrix(1 0 0 1 5415.68 1130)">-0.40</text></g><g clip-path="url(#clip16)"><text fill="#595959" font-family="Calibri,Calibri_MSFontService,sans-serif" font-weight="400" font-size="41" transform="matrix(1 0 0 1 5415.68 1029)">-0.35</text></g><g clip-path="url(#clip17)"><text fill="#595959" font-family="Calibri,Calibri_MSFontService,sans-serif" font-weight="400" font-size="41" transform="matrix(1 0 0 1 5415.68 929)">-0.30</text></g><g clip-path="url(#clip18)"><text fill="#595959" font-family="Calibri,Calibri_MSFontService,sans-serif" font-weight="400" font-size="41" transform="matrix(1 0 0 1 5415.68 828)">-0.25</text></g><g clip-path="url(#clip19)"><text fill="#595959" font-family="Calibri,Calibri_MSFontService,sans-serif" font-weight="400" font-size="41" transform="matrix(1 0 0 1 5415.68 728)">-0.20</text></g><g clip-path="url(#clip20)"><text fill="#595959" font-family="Calibri,Calibri_MSFontService,sans-serif" font-weight="400" font-size="41" transform="matrix(1 0 0 1 5415.68 627)">-0.15</text></g><g clip-path="url(#clip21)"><text fill="#595959" font-family="Calibri,Calibri_MSFontService,sans-serif" font-weight="400" font-size="41" transform="matrix(1 0 0 1 5415.68 527)">-0.10</text></g><g clip-path="url(#clip22)"><text fill="#595959" font-family="Calibri,Calibri_MSFontService,sans-serif" font-weight="400" font-size="41" transform="matrix(1 0 0 1 5415.68 426)">-0.05</text></g><g clip-path="url(#clip23)"><text fill="#595959" font-family="Calibri,Calibri_MSFontService,sans-serif" font-weight="400" font-size="41" transform="matrix(1 0 0 1 5415.68 326)">0.00</text></g><g clip-path="url(#clip24)"><text fill="#595959" font-family="Calibri,Calibri_MSFontService,sans-serif" font-weight="400" font-size="41" transform="matrix(1 0 0 1 3236.01 1230)">0.00</text></g><g clip-path="url(#clip25)"><text fill="#595959" font-family="Calibri,Calibri_MSFontService,sans-serif" font-weight="400" font-size="41" transform="matrix(1 0 0 1 3236.01 1080)">2.00</text></g><g clip-path="url(#clip26)"><text fill="#595959" font-family="Calibri,Calibri_MSFontService,sans-serif" font-weight="400" font-size="41" transform="matrix(1 0 0 1 3236.01 929)">4.00</text></g><g clip-path="url(#clip27)"><text fill="#595959" font-family="Calibri,Calibri_MSFontService,sans-serif" font-weight="400" font-size="41" transform="matrix(1 0 0 1 3236.01 778)">6.00</text></g><g clip-path="url(#clip28)"><text fill="#595959" font-family="Calibri,Calibri_MSFontService,sans-serif" font-weight="400" font-size="41" transform="matrix(1 0 0 1 3236.01 627)">8.00</text></g><g clip-path="url(#clip29)"><text fill="#595959" font-family="Calibri,Calibri_MSFontService,sans-serif" font-weight="400" font-size="41" transform="matrix(1 0 0 1 3215.11 476)">10.00</text></g><g clip-path="url(#clip30)"><text fill="#595959" font-family="Calibri,Calibri_MSFontService,sans-serif" font-weight="400" font-size="41" transform="matrix(1 0 0 1 3215.11 326)">12.00</text></g><g clip-path="url(#clip31)"><text fill="#595959" font-family="Calibri,Calibri_MSFontService,sans-serif" font-weight="400" font-size="41" transform="matrix(1 0 0 1 3336.93 1284)">2</text></g><g clip-path="url(#clip32)"><text fill="#595959" font-family="Calibri,Calibri_MSFontService,sans-serif" font-weight="400" font-size="41" transform="matrix(1 0 0 1 3562.49 1284)">3</text></g><g clip-path="url(#clip33)"><text fill="#595959" font-family="Calibri,Calibri_MSFontService,sans-serif" font-weight="400" font-size="41" transform="matrix(1 0 0 1 3788.05 1284)">4</text></g><g clip-path="url(#clip34)"><text fill="#595959" font-family="Calibri,Calibri_MSFontService,sans-serif" font-weight="400" font-size="41" transform="matrix(1 0 0 1 4013.61 1284)">5</text></g><g clip-path="url(#clip35)"><text fill="#595959" font-family="Calibri,Calibri_MSFontService,sans-serif" font-weight="400" font-size="41" transform="matrix(1 0 0 1 4239.17 1284)">6</text></g><g clip-path="url(#clip36)"><text fill="#595959" font-family="Calibri,Calibri_MSFontService,sans-serif" font-weight="400" font-size="41" transform="matrix(1 0 0 1 4464.73 1284)">7</text></g><g clip-path="url(#clip37)"><text fill="#595959" font-family="Calibri,Calibri_MSFontService,sans-serif" font-weight="400" font-size="41" transform="matrix(1 0 0 1 4690.29 1284)">8</text></g><g clip-path="url(#clip38)"><text fill="#595959" font-family="Calibri,Calibri_MSFontService,sans-serif" font-weight="400" font-size="41" transform="matrix(1 0 0 1 4915.85 1284)">9</text></g><g clip-path="url(#clip39)"><text fill="#595959" font-family="Calibri,Calibri_MSFontService,sans-serif" font-weight="400" font-size="41" transform="matrix(1 0 0 1 5130.96 1284)">10</text></g><g clip-path="url(#clip40)"><text fill="#595959" font-family="Calibri,Calibri_MSFontService,sans-serif" font-weight="400" font-size="41" transform="matrix(1 0 0 1 5356.52 1284)">11</text></g><g clip-path="url(#clip41)"><rect x="5508.5" y="623.5" width="68.9995" height="286" stroke="#FFFFFF" stroke-width="3.4375" stroke-linejoin="round" stroke-miterlimit="10" fill="none"/></g><g clip-path="url(#clip42)"><text fill="#ED7D31" font-family="Calibri,Calibri_MSFontService,sans-serif" font-weight="400" font-size="46" transform="matrix(6.12323e-17 -1 1 6.12323e-17 5559.17 895)">Variance, mm</text></g><g clip-path="url(#clip43)"><text fill="#4472C4" font-family="Calibri,Calibri_MSFontService,sans-serif" font-weight="400" font-size="46" transform="matrix(6.12323e-17 -1 1 6.12323e-17 3189.42 999)">Measured diameter, mm</text></g><g clip-path="url(#clip44)"><text fill="#595959" font-family="Calibri,Calibri_MSFontService,sans-serif" font-weight="400" font-size="46" transform="matrix(1 0 0 1 4145.92 1353)">Nominal diameter, mm</text></g><g clip-path="url(#clip45)"><text fill="#595959" font-family="Calibri,Calibri_MSFontService,sans-serif" font-weight="400" font-size="64" transform="matrix(1 0 0 1 4132.76 233)">Internal diameters</text></g></g></svg>